# xmcd
#
# Track frame offsets: 
#        150
#        15489
#        32990
#        35420
#        47111
#        59776
#        74085
#        86250
#        99038
#        111074
#        126226
#        136814
#
# Disc length: 1911 seconds
#
# Revision: 2
# Processed by: cddbd v1.5.2PL0 Copyright (c) Steve Scherf et al.
# Submitted via: ExactAudioCopy v0.99pb4
#
DISCID=a107750c
DTITLE=Vassendgutane - Pylse Og Konjakk
DYEAR=2000
DGENRE=Country
TTITLE0=Kleiva-Leifi
TTITLE1=Skilsmisseferd
TTITLE2=Intro Lauris
TTITLE3=Anj Lauris
TTITLE4=Låvedans
TTITLE5=Ivar Aasen Blues
TTITLE6=Åtti År
TTITLE7=Haukelitopp
TTITLE8=Bonde I Frå Hamlagrø
TTITLE9=Åsmund I Svingja
TTITLE10=Diggy Liggy
TTITLE11=Pylse Og Konjakk
EXTD=
EXTT0=
EXTT1=
EXTT2=
EXTT3=
EXTT4=
EXTT5=
EXTT6=
EXTT7=
EXTT8=
EXTT9=
EXTT10=
EXTT11=
PLAYORDER=
